PathFileType	4	(X/Y/Z)	E:/New_biomech_experiments/MICROGRAVITY MOCAP/Session 2024-06-22/Neeraj_FullAction_pp_22_06_24_t02 (1).trc																																																																											
DataRate	CameraRate	NumFrames	NumMarkers	Units	OrigDataRate	OrigDataStartFrame	OrigNumFrames																																																																							
120	120	9	19	m	120	2843	7579																																																																							
Frame#	Time	RSHO			RBAK			LBHD			RUPA			PRSHO			RELB			CLAV			RFHD			LFHD			C7			RWRB			RFRM			RWRA			MRELB			DIA			STRN			ARSHO			RBHD			T10																						
		X1	Y1	Z1	X2	Y2	Z2	X3	Y3	Z3	X4	Y4	Z4	X5	Y5	Z5	X6	Y6	Z6	X7	Y7	Z7	X8	Y8	Z8	X9	Y9	Z9	X10	Y10	Z10	X11	Y11	Z11	X12	Y12	Z12	X13	Y13	Z13	X14	Y14	Z14	X15	Y15	Z15	X16	Y16	Z16	X17	Y17	Z17	X18	Y18	Z18	X19	Y19	Z19																				y19
																																																																														
2843	23.683	-0.04005	0.06014	0.10625	-0.10801	-0.13141	0.00008	-0.02531	0.21739	-0.12347	-0.02224	-0.05203	0.2644	-0.10536	-0.02376	0.06931	-0.02663	-0.113	0.38541	0.11144	-0.01289	-0.0701	0.07011	0.30876	0.02766	0.0892	0.32648	-0.07297	-0.08651	0.03008	-0.07934	-0.02658	-0.27508	0.6307	-0.0061	-0.1719	0.50552	0.0715	-0.26667	0.61148	0.02676	-0.21187	0.33803	0.08424	-0.32642	0.10554	0.14573	-0.17604	-0.05492	0.06821	-0.0003	0.09027	-0.0523	0.21319	-0.02207	-0.10039	-1.57934	-0.06547																				-1.57934
2844	23.692	-0.03998	0.0602	0.10623	-0.10794	-0.13143	0.00011	-0.02529	0.21741	-0.12347	-0.0222	-0.05179	0.26445	-0.1053	-0.02376	0.06932	-0.02666	-0.11268	0.3855	0.11147	-0.01289	-0.07008	0.07004	0.30867	0.02758	0.08918	0.32651	-0.07298	-0.08646	0.03007	-0.07931	-0.02653	-0.27452	0.63093	-0.0061	-0.17151	0.50566	0.07153	-0.26612	0.61167	0.02699	-0.2115	0.33828	0.08433	-0.32641	0.10552	0.14577	-0.17579	-0.05479	0.06826	-0.00023	0.09028	-0.05224	0.21322	-0.02202	-0.10037	-1.57931	-0.06547																				-1.57931
2845	23.7	-0.03996	0.06023	0.10622	-0.10786	-0.13141	0.00013	-0.02526	0.21742	-0.12345	-0.02214	-0.05157	0.26452	-0.10526	-0.02375	0.06933	-0.02664	-0.11237	0.38556	0.1115	-0.01287	-0.0701	0.07007	0.30866	0.02756	0.08919	0.32617	-0.07298	-0.08643	0.03006	-0.07928	-0.02657	-0.27299	0.63162	-0.00607	-0.17109	0.50581	0.0714	-0.26537	0.61184	0.02708	-0.21115	0.33851	0.0844	-0.32643	0.10554	0.14581	-0.17578	-0.05478	0.0683	-0.00022	0.09022	-0.052	0.21233	-0.0218	-0.10025	-1.57928	-0.06541																				-1.57928
2846	23.708	-0.04001	0.06035	0.10606	-0.1078	-0.13143	0.00018	-0.02521	0.2174	-0.12342	-0.02207	-0.0514	0.26459	-0.1052	-0.02378	0.06933	-0.02663	-0.11204	0.38566	0.11152	-0.01288	-0.07008	0.07023	0.30874	0.02766	0.08927	0.32648	-0.07298	-0.08641	0.03006	-0.07926	-0.02647	-0.27246	0.63186	-0.00613	-0.17068	0.50594	0.07152	-0.26493	0.61212	0.02716	-0.21086	0.33871	0.08445	-0.32641	0.10552	0.14584	-0.17578	-0.05479	0.06833	-0.00015	0.09022	-0.05218	0.21323	-0.022	-0.1002	-1.57926	-0.0654																				-1.57926
2847	23.717	-0.04001	0.0604	0.10602	-0.10771	-0.13144	0.00019	-0.0252	0.2174	-0.12343	-0.02198	-0.05124	0.26462	-0.10515	-0.02378	0.06936	-0.02661	-0.11176	0.38575	0.11157	-0.01286	-0.07011	0.07014	0.30866	0.02758	0.08932	0.32648	-0.07297	-0.08643	0.03004	-0.07925	-0.02638	-0.27196	0.63209	-0.00606	-0.17025	0.50609	0.0715	-0.26444	0.61228	0.02729	-0.21058	0.33889	0.0845	-0.32642	0.10552	0.14587	-0.17577	-0.05478	0.06833	-0.00013	0.09022	-0.0519	0.21235	-0.02176	-0.10012	-1.57925	-0.06538																				-1.57925
2848	23.725	-0.03991	0.0604	0.10609	-0.10765	-0.13145	0.00021	-0.02515	0.21739	-0.12341	-0.02203	-0.05048	0.26511	-0.1051	-0.02376	0.06937	-0.02658	-0.11148	0.38584	0.11156	-0.01285	-0.07009	0.07019	0.30862	0.02761	0.08935	0.32648	-0.07294	-0.08636	0.03003	-0.07926	-0.02633	-0.27147	0.63226	-0.006	-0.16985	0.50624	0.07154	-0.26396	0.6125	0.02732	-0.21033	0.33904	0.08461	-0.3264	0.10556	0.14591	-0.17577	-0.05478	0.06834	-1E-04	0.0902	-0.05204	0.21316	-0.02193	-0.1001	-1.57926	-0.06537																				-1.57926
2849	23.733	-0.03984	0.06044	0.10609	-0.10757	-0.13145	0.00026	-0.02512	0.21742	-0.12337	-0.02194	-0.05026	0.26516	-0.10508	-0.02375	0.06935	-0.02661	-0.11122	0.38589	0.11161	-0.01287	-0.07008	0.07023	0.30863	0.02762	0.08937	0.32648	-0.07293	-0.08636	0.03002	-0.07924	-0.02626	-0.27101	0.63248	-0.00598	-0.16946	0.50633	0.07154	-0.26346	0.61274	0.02741	-0.21008	0.33918	0.0847	-0.3264	0.10553	0.146	-0.17609	-0.05491	0.0684	-7E-05	0.09016	-0.0518	0.2123	-0.02168	-0.10003	-1.57924	-0.06531																				-1.57924
2850	23.742	-0.03986	0.0605	0.106	-0.10751	-0.13147	0.00027	-0.02513	0.21741	-0.1234	-0.02185	-0.05004	0.26521	-0.10503	-0.02375	0.06939	-0.02657	-0.11098	0.38593	0.11165	-0.01285	-0.07009	0.07027	0.30861	0.02763	0.08939	0.32647	-0.07292	-0.08635	0.03003	-0.07925	-0.02626	-0.27055	0.6327	-0.00586	-0.16954	0.50629	0.07166	-0.26307	0.61297	0.02751	-0.20979	0.33936	0.08476	-0.32643	0.10554	0.14599	-0.17575	-0.05481	0.06844	1E-05	0.09017	-0.05173	0.21228	-0.02164	-0.09996	-1.57925	-0.0653																				-1.57925
2851	23.75	-0.03983	0.06056	0.10595	-0.10741	-0.13145	0.00028	-0.02509	0.21742	-0.12338	-0.0218	-0.04981	0.26522	-0.10497	-0.02375	0.0694	-0.0265	-0.11071	0.38597	0.11172	-0.01283	-0.07003	0.07032	0.30861	0.02767	0.08944	0.32646	-0.0729	-0.08631	0.03001	-0.07923	-0.02616	-0.27006	0.63298	-0.00546	-0.16818	0.50744	0.07171	-0.26255	0.6132	0.02753	-0.20948	0.33954	0.08484	-0.32643	0.10554	0.14603	-0.17574	-0.05479	0.06847	5E-05	0.09016	-0.05197	0.21317	-0.0219	-0.09998	-1.57923	-0.06527																				-1.57923
